<?xml version="1.0" encoding="UTF-8" standalone="no"?>
<!-- Created with Inkscape (http://www.inkscape.org/) -->

<svg
   xmlns:dc="http://purl.org/dc/elements/1.1/"
   xmlns:cc="http://creativecommons.org/ns#"
   xmlns:rdf="http://www.w3.org/1999/02/22-rdf-syntax-ns#"
   xmlns:svg="http://www.w3.org/2000/svg"
   xmlns="http://www.w3.org/2000/svg"
   xmlns:sodipodi="http://sodipodi.sourceforge.net/DTD/sodipodi-0.dtd"
   xmlns:inkscape="http://www.inkscape.org/namespaces/inkscape"
   width="56.444443mm"
   height="64.868416mm"
   viewBox="0 0 199.99999 229.84872"
   id="svg3348"
   version="1.1"
   inkscape:version="0.91 r13725"
   sodipodi:docname="sam_bossley.svg">
  <defs
     id="defs3350" />
  <sodipodi:namedview
     id="base"
     pagecolor="#ffffff"
     bordercolor="#666666"
     borderopacity="1.0"
     inkscape:pageopacity="0.0"
     inkscape:pageshadow="2"
     inkscape:zoom="1.979899"
     inkscape:cx="131.56362"
     inkscape:cy="29.374007"
     inkscape:document-units="px"
     inkscape:current-layer="layer1"
     showgrid="false"
     fit-margin-top="0"
     fit-margin-left="0"
     fit-margin-right="0"
     fit-margin-bottom="0"
     inkscape:window-width="1600"
     inkscape:window-height="851"
     inkscape:window-x="0"
     inkscape:window-y="25"
     inkscape:window-maximized="1" />
  <metadata
     id="metadata3353">
    <rdf:RDF>
      <cc:Work
         rdf:about="">
        <dc:format>image/svg+xml</dc:format>
        <dc:type
           rdf:resource="http://purl.org/dc/dcmitype/StillImage" />
        <dc:title></dc:title>
      </cc:Work>
    </rdf:RDF>
  </metadata>
  <g
     inkscape:label="Layer 1"
     inkscape:groupmode="layer"
     id="layer1"
     transform="translate(84.285715,-874.76544)">
    <path
       style="opacity:1;fill:#ffffff;fill-opacity:1;fill-rule:nonzero;stroke:none;stroke-opacity:1"
       d="m -84.285715,874.76544 0,199.99996 199.999995,0 0,-199.99996 -199.999995,0 z m 16,16 168,0 0,0.0629 -80.675783,48.48829 16.324223,9.79286 64.35156,-38.67972 0,9.81257 0,138.52346 -168,0 0,0 79.804697,-47.9648 -16.3281199,-9.797 -63.4765771,38.1524 0,-5.6289 0,-142.75001 z m 63.4765771,110.22656 11.96094,-7.18742 8.6562399,14.40632 -4.28906,2.578 63.320303,-37.99203 -27.81248,-16.68743 -8.261723,-4.95715 -44.937497,26.96086 -3.3906429,-2.03114 44.9374999,-26.96486 -0.012,0 -10.26172,6.168 -8.65624,-14.40257 2.59374,-1.55857 -0.004,0 -63.32032,37.99228 33.82814,20.30086 2.2421801,1.34372 44.9374969,-26.96086 3.390623,2.03514 -44.9374999,26.96085 0.016,0 z"
       id="rect3526"
       inkscape:connector-curvature="0"
       inkscape:export-xdpi="22.5"
       inkscape:export-ydpi="22.5" />
    <g
       transform="matrix(0.25,0,0,0.25,-84.285715,874.76544)"
       style="font-style:normal;font-variant:normal;font-weight:normal;font-stretch:normal;font-size:80px;line-height:122.00000286%;font-family:bebas;-inkscape-font-specification:bebas;text-align:center;letter-spacing:0px;word-spacing:10.27999496px;writing-mode:lr-tb;text-anchor:middle;fill:#ffffff;fill-opacity:1;stroke:none;stroke-width:1px;stroke-linecap:butt;stroke-linejoin:miter;stroke-opacity:1"
       id="flowRoot3334">
      <path
         d="m 44.975907,862.43485 c -8.24,0.08 -11.92,5.52 -11.92,13.92 0,15.6 20.24,15.84 20.24,29.28 0,6 -2.32,10.32 -8.48,10.32 -6.16,0 -8.48,-4.32 -8.48,-10.32 l 0,-3.12 -3.52,0 0,2.88 c 0,8.08 3.52,14 12.08,14 8.56,0 12.08,-5.92 12.08,-14 0,-15.44 -20.24,-15.68 -20.24,-29.28 0,-5.92 2.24,-10.32 8.32,-10.32 6.08,0 8.32,4.48 8.32,10.4 l 0,1.44 3.52,0 0,-1.2 c 0,-8.08 -3.44,-14 -11.92,-14 z"
         style="font-style:normal;font-variant:normal;font-weight:normal;font-stretch:normal;font-size:80px;line-height:122.00000286%;font-family:'Bebas Neue';-inkscape-font-specification:'Bebas Neue';text-align:center;word-spacing:10.27999496px;text-anchor:middle;fill:#ffffff"
         id="path3339" />
      <path
         d="m 130.87465,906.51485 2.8,12.4 3.68,0 -12.48,-56.08 -5.36,0 -12.24,56.08 3.36,0 2.8,-12.4 17.44,0 z m -8.8,-39.44 8.24,36.24 -16.32,0 8.08,-36.24 z"
         style="font-style:normal;font-variant:normal;font-weight:normal;font-stretch:normal;font-size:80px;line-height:122.00000286%;font-family:'Bebas Neue';-inkscape-font-specification:'Bebas Neue';text-align:center;word-spacing:10.27999496px;text-anchor:middle;fill:#ffffff"
         id="path3341" />
      <path
         d="m 218.64589,869.15485 0,49.76 3.52,0 0,-56 -5.28,0 -11.68,49.52 -11.76,-49.52 -5.28,0 0,56 3.28,0 0,-49.6 11.84,49.52 3.68,0 11.68,-49.68 z"
         style="font-style:normal;font-variant:normal;font-weight:normal;font-stretch:normal;font-size:80px;line-height:122.00000286%;font-family:'Bebas Neue';-inkscape-font-specification:'Bebas Neue';text-align:center;word-spacing:10.27999496px;text-anchor:middle;fill:#ffffff"
         id="path3343" />
      <path
         d="m 296.50587,862.91485 0,56 12,0 c 8.56,0 12.24,-4.88 12.24,-12.96 l 0,-4.88 c 0,-6.32 -2.32,-10.8 -8.4,-12 5.68,-1.2 7.36,-4.96 7.36,-11.04 l 0,-3.2 c 0,-7.76 -3.04,-11.92 -11.44,-11.92 l -11.76,0 z m 3.68,24.72 0,-21.36 8,0 c 6,0 7.84,3.04 7.84,8.88 l 0,3.6 c 0,7.12 -3.04,8.88 -9.6,8.88 l -6.24,0 z m 0,27.92 0,-24.56 6.96,0 c 6.64,0 9.92,2.56 9.92,9.84 l 0,5.04 c 0,6.24 -2.4,9.68 -8.56,9.68 l -8.32,0 z"
         style="font-style:normal;font-variant:normal;font-weight:normal;font-stretch:normal;font-size:80px;line-height:122.00000286%;font-family:'Bebas Neue';-inkscape-font-specification:'Bebas Neue';text-align:center;word-spacing:10.27999496px;text-anchor:middle;fill:#ffffff"
         id="path3345" />
      <path
         d="m 371.82587,905.23485 c 0,8.16 3.76,14.16 12.24,14.16 8.64,0 12.4,-6 12.4,-14.16 l 0,-28.64 c 0,-8.16 -3.76,-14.16 -12.4,-14.16 -8.48,0 -12.24,6 -12.24,14.16 l 0,28.64 z m 3.68,-28.88 c 0,-6.08 2.4,-10.56 8.56,-10.56 6.24,0 8.72,4.48 8.72,10.56 l 0,29.12 c 0,6.08 -2.48,10.56 -8.72,10.56 -6.16,0 -8.56,-4.48 -8.56,-10.56 l 0,-29.12 z"
         style="font-style:normal;font-variant:normal;font-weight:normal;font-stretch:normal;font-size:80px;line-height:122.00000286%;font-family:'Bebas Neue';-inkscape-font-specification:'Bebas Neue';text-align:center;word-spacing:10.27999496px;text-anchor:middle;fill:#ffffff"
         id="path3347" />
      <path
         d="m 459.46211,862.43485 c -8.24,0.08 -11.92,5.52 -11.92,13.92 0,15.6 20.24,15.84 20.24,29.28 0,6 -2.32,10.32 -8.48,10.32 -6.16,0 -8.48,-4.32 -8.48,-10.32 l 0,-3.12 -3.52,0 0,2.88 c 0,8.08 3.52,14 12.08,14 8.56,0 12.08,-5.92 12.08,-14 0,-15.44 -20.24,-15.68 -20.24,-29.28 0,-5.92 2.24,-10.32 8.32,-10.32 6.08,0 8.32,4.48 8.32,10.4 l 0,1.44 3.52,0 0,-1.2 c 0,-8.08 -3.44,-14 -11.92,-14 z"
         style="font-style:normal;font-variant:normal;font-weight:normal;font-stretch:normal;font-size:80px;line-height:122.00000286%;font-family:'Bebas Neue';-inkscape-font-specification:'Bebas Neue';text-align:center;word-spacing:10.27999496px;text-anchor:middle;fill:#ffffff"
         id="path3349" />
      <path
         d="m 534.24083,862.43485 c -8.24,0.08 -11.92,5.52 -11.92,13.92 0,15.6 20.24,15.84 20.24,29.28 0,6 -2.32,10.32 -8.48,10.32 -6.16,0 -8.48,-4.32 -8.48,-10.32 l 0,-3.12 -3.52,0 0,2.88 c 0,8.08 3.52,14 12.08,14 8.56,0 12.08,-5.92 12.08,-14 0,-15.44 -20.24,-15.68 -20.24,-29.28 0,-5.92 2.24,-10.32 8.32,-10.32 6.08,0 8.32,4.48 8.32,10.4 l 0,1.44 3.52,0 0,-1.2 c 0,-8.08 -3.44,-14 -11.92,-14 z"
         style="font-style:normal;font-variant:normal;font-weight:normal;font-stretch:normal;font-size:80px;line-height:122.00000286%;font-family:'Bebas Neue';-inkscape-font-specification:'Bebas Neue';text-align:center;word-spacing:10.27999496px;text-anchor:middle;fill:#ffffff"
         id="path3351" />
      <path
         d="m 618.61961,918.91485 0,-3.36 -17.6,0 0,-52.64 -3.68,0 0,56 21.28,0 z"
         style="font-style:normal;font-variant:normal;font-weight:normal;font-stretch:normal;font-size:80px;line-height:122.00000286%;font-family:'Bebas Neue';-inkscape-font-specification:'Bebas Neue';text-align:center;word-spacing:10.27999496px;text-anchor:middle;fill:#ffffff"
         id="path3353" />
      <path
         d="m 673.14204,888.83485 0,-22.56 18.4,0 0,-3.36 -22.08,0 0,56 22.08,0 0,-3.36 -18.4,0 0,-23.36 15.28,0 0,-3.36 -15.28,0 z"
         style="font-style:normal;font-variant:normal;font-weight:normal;font-stretch:normal;font-size:80px;line-height:122.00000286%;font-family:'Bebas Neue';-inkscape-font-specification:'Bebas Neue';text-align:center;word-spacing:10.27999496px;text-anchor:middle;fill:#ffffff"
         id="path3355" />
      <path
         d="m 754.35454,918.91485 3.68,0 0,-21.52 12.64,-34.48 -3.6,0 -10.72,29.44 -10.72,-29.44 -3.84,0 12.56,34.48 0,21.52 z"
         style="font-style:normal;font-variant:normal;font-weight:normal;font-stretch:normal;font-size:80px;line-height:122.00000286%;font-family:'Bebas Neue';-inkscape-font-specification:'Bebas Neue';text-align:center;word-spacing:10.27999496px;text-anchor:middle;fill:#ffffff"
         id="path3357" />
    </g>
  </g>
</svg>
