<?xml version="1.0" encoding="UTF-8" standalone="no"?>
<!-- Created with Inkscape (http://www.inkscape.org/) -->

<svg
   xmlns:dc="http://purl.org/dc/elements/1.1/"
   xmlns:cc="http://creativecommons.org/ns#"
   xmlns:rdf="http://www.w3.org/1999/02/22-rdf-syntax-ns#"
   xmlns:svg="http://www.w3.org/2000/svg"
   xmlns="http://www.w3.org/2000/svg"
   xmlns:xlink="http://www.w3.org/1999/xlink"
   xmlns:sodipodi="http://sodipodi.sourceforge.net/DTD/sodipodi-0.dtd"
   xmlns:inkscape="http://www.inkscape.org/namespaces/inkscape"
   width="673.29761"
   height="841.60846"
   id="svg4814"
   version="1.1"
   inkscape:version="0.48.4 r9939"
   sodipodi:docname="New document 32">
  <defs
     id="defs4816">
    <linearGradient
       gradientTransform="translate(843.34824,1280.0673)"
       y2="-560.53992"
       x2="620.01251"
       y1="693.01898"
       x1="1176.4872"
       gradientUnits="userSpaceOnUse"
       id="linearGradient4733"
       xlink:href="#linearGradient4607-0"
       inkscape:collect="always" />
    <linearGradient
       id="linearGradient4607-0">
      <stop
         style="stop-color:#f85625;stop-opacity:1;"
         offset="0"
         id="stop4609-0" />
      <stop
         style="stop-color:#000000;stop-opacity:1;"
         offset="1"
         id="stop4611-5" />
    </linearGradient>
    <linearGradient
       gradientTransform="translate(-827.9881,-68.445441)"
       inkscape:collect="always"
       xlink:href="#linearGradient4615-2"
       id="linearGradient4621-4"
       x1="998.19781"
       y1="759.58844"
       x2="1509.1493"
       y2="-2.6667738"
       gradientUnits="userSpaceOnUse" />
    <linearGradient
       id="linearGradient4615-2">
      <stop
         style="stop-color:#0ba888;stop-opacity:1;"
         offset="0"
         id="stop4617-6" />
      <stop
         style="stop-color:#000000;stop-opacity:1;"
         offset="1"
         id="stop4619-2" />
    </linearGradient>
    <linearGradient
       gradientTransform="translate(-827.9881,-68.445441)"
       inkscape:collect="always"
       xlink:href="#linearGradient4623-7"
       id="linearGradient4629-2"
       x1="1322.7761"
       y1="455.06607"
       x2="804.02246"
       y2="-478.5741"
       gradientUnits="userSpaceOnUse" />
    <linearGradient
       id="linearGradient4623-7">
      <stop
         style="stop-color:#0ba888;stop-opacity:1;"
         offset="0"
         id="stop4625-0" />
      <stop
         style="stop-color:#000000;stop-opacity:1;"
         offset="1"
         id="stop4627-7" />
    </linearGradient>
    <linearGradient
       gradientTransform="translate(-827.9881,-68.445441)"
       inkscape:collect="always"
       xlink:href="#linearGradient4631-1"
       id="linearGradient4637-7"
       x1="1077.4608"
       y1="320.25018"
       x2="2873.4319"
       y2="-654.19598"
       gradientUnits="userSpaceOnUse" />
    <linearGradient
       id="linearGradient4631-1">
      <stop
         style="stop-color:#ff5d2a;stop-opacity:1;"
         offset="0"
         id="stop4633-1" />
      <stop
         style="stop-color:#000000;stop-opacity:1;"
         offset="1"
         id="stop4635-5" />
    </linearGradient>
    <linearGradient
       y2="-560.53992"
       x2="620.01251"
       y1="693.01898"
       x1="1176.4872"
       gradientTransform="translate(-827.9881,-68.445441)"
       gradientUnits="userSpaceOnUse"
       id="linearGradient4812"
       xlink:href="#linearGradient4607-0"
       inkscape:collect="always" />
    <linearGradient
       inkscape:collect="always"
       xlink:href="#linearGradient4607-0"
       id="linearGradient4875"
       gradientUnits="userSpaceOnUse"
       gradientTransform="translate(-827.9881,-68.445441)"
       x1="1176.4872"
       y1="693.01898"
       x2="620.01251"
       y2="-560.53992" />
    <linearGradient
       inkscape:collect="always"
       xlink:href="#linearGradient4615-2"
       id="linearGradient4877"
       gradientUnits="userSpaceOnUse"
       gradientTransform="translate(-827.9881,-68.445441)"
       x1="998.19781"
       y1="759.58844"
       x2="1509.1493"
       y2="-2.6667738" />
    <linearGradient
       inkscape:collect="always"
       xlink:href="#linearGradient4623-7"
       id="linearGradient4879"
       gradientUnits="userSpaceOnUse"
       gradientTransform="translate(-827.9881,-68.445441)"
       x1="1322.7761"
       y1="455.06607"
       x2="804.02246"
       y2="-478.5741" />
    <linearGradient
       inkscape:collect="always"
       xlink:href="#linearGradient4631-1"
       id="linearGradient4881"
       gradientUnits="userSpaceOnUse"
       gradientTransform="translate(-827.9881,-68.445441)"
       x1="1077.4608"
       y1="320.25018"
       x2="2873.4319"
       y2="-654.19598" />
  </defs>
  <sodipodi:namedview
     id="base"
     pagecolor="#ffffff"
     bordercolor="#666666"
     borderopacity="1.0"
     inkscape:pageopacity="0.0"
     inkscape:pageshadow="2"
     inkscape:zoom="0.35"
     inkscape:cx="343.83991"
     inkscape:cy="412.9232"
     inkscape:document-units="px"
     inkscape:current-layer="layer1"
     showgrid="false"
     fit-margin-top="0"
     fit-margin-left="0"
     fit-margin-right="0"
     fit-margin-bottom="0"
     inkscape:window-width="1600"
     inkscape:window-height="851"
     inkscape:window-x="0"
     inkscape:window-y="25"
     inkscape:window-maximized="1" />
  <metadata
     id="metadata4819">
    <rdf:RDF>
      <cc:Work
         rdf:about="">
        <dc:format>image/svg+xml</dc:format>
        <dc:type
           rdf:resource="http://purl.org/dc/dcmitype/StillImage" />
        <dc:title></dc:title>
      </cc:Work>
    </rdf:RDF>
  </metadata>
  <g
     inkscape:label="Layer 1"
     inkscape:groupmode="layer"
     id="layer1"
     transform="translate(-31.160094,-103.67693)">
    <g
       id="g4869"
       transform="matrix(1.2831409,0,0,1.2831409,-12.488814,29.306517)">
      <path
         sodipodi:nodetypes="csccssscsssscsssssscscsscscscsscccssssccscssssscsssccsssscs"
         inkscape:connector-curvature="0"
         id="path3065-2-7-3"
         d="m 162.38536,712.91926 c -0.3537,-0.5722 -0.5183,-35.5494 -0.3658,-77.7271 l 0.2772,-76.6867 -2.9432,-1.6214 c -10.9065,-6.008 -38.7637,-21.9937 -60.443204,-34.6852 -4.675,-2.7368 -15.7,-9.1578 -24.5,-14.269 -27.6105,-16.0364 -32.8477,-20.0296 -37.3393,-28.4702 l -2.6607,-5 -0.2847,-91.6947 c -0.307,-98.8849 -0.3105,-98.808 4.9195,-109.0767 5.8,-11.3878 7.9218,-12.8798 49.3652,-34.7117 5.5,-2.8973 14.725004,-7.7579 20.500004,-10.8013 16.3071,-8.5938 51.121,-27.2743 52.9011,-28.3858 1.4447,-0.902 1.5735,-7.7889 1.3356,-71.4141 -0.1951,-52.175501 0.032,-70.415701 0.8761,-70.415701 1.0236,0 46.9852,24.4592 107.6371,57.280801 12.2375,6.6223 22.25,12.4182 22.25,12.8798 0,0.4617 0.496,0.8394 1.1022,0.8394 0.6062,0 20.5187,-10.3025 44.25,-22.8944 81.5476,-43.269301 89.0389,-47.088601 89.8521,-45.809201 0.4208,0.662 0.7719,32.2911 0.7804,70.286901 0.012,54.587 0.2776,69.0852 1.2653,69.0922 0.6875,0.01 8.675,4.0739 17.75,9.0422 9.075,4.9684 33.15,17.9138 53.5,28.7676 20.35,10.8538 38.9778,21.1474 41.3952,22.8745 6.014,4.2968 9.6896,9.1087 12.3543,16.1735 l 2.2505,5.9667 0.2744,95.3025 c 0.1855,64.4265 -0.067,96.5693 -0.7785,99.2126 -1.2487,4.6372 -8.0567,11.9227 -15.9959,17.1178 -3.025,1.9794 -13.15,8.0014 -22.5,13.3823 -47.4874,27.3286 -88.6598,51.6445 -90.4107,53.3955 -1.1405,1.1405 -1.5097,2.1158 -0.8802,2.3256 1.2437,0.4146 2.0495,146.7272 0.819,148.7182 -0.4945,0.8002 -5.2805,-1.4845 -15.1258,-7.2204 -7.9213,-4.615 -22.0523,-12.8195 -31.4023,-18.2322 -9.35,-5.4128 -23.3,-13.5161 -31,-18.0074 -7.7,-4.4914 -22.4545,-13.0462 -32.7877,-19.0109 -11.5742,-6.681 -18.6063,-11.3173 -18.3154,-12.0756 0.346,-0.9015 -0.268,-1.0185 -2.2944,-0.4373 -2.7565,0.7905 -12.7267,6.5666 -97.1024,56.2549 -37.4376,22.0467 -37.1779,21.9137 -38.525,19.734 z m -0.7378,-172.2096 c -0.202,-2.8875 -0.3673,-0.525 -0.3673,5.25 0,5.775 0.1653,8.1375 0.3673,5.25 0.202,-2.8875 0.202,-7.6125 0,-10.5 z m 186.2528,-125.0351 c 28.8696,-15.54 52.6118,-28.9206 52.7606,-29.7347 0.1845,-1.0098 -7.9166,-5.9173 -25.4901,-15.4416 -14.1684,-7.6787 -34.1686,-18.5698 -44.4451,-24.2025 -10.2764,-5.6326 -21.3621,-11.5928 -24.6348,-13.2449 -3.2727,-1.6521 -6.6041,-3.6575 -7.4032,-4.4565 -1.2704,-1.2704 -4.0156,-0.07 -21.8651,9.5631 -17.3314,9.3531 -32.7467,17.6293 -70.4123,37.8029 -11.5535,6.1881 -16.5,9.1522 -16.5,9.8876 0,0.8674 27.6391,16.5515 60.9999,34.6148 12.925,6.9983 26.65,14.4419 30.5,16.5413 9.7409,5.3118 12.92,6.9447 13.5,6.9341 0.275,-0.01 24.1205,-12.7236 52.9901,-28.2636 z"
         style="fill:url(#linearGradient4875);fill-opacity:1" />
      <path
         sodipodi:nodetypes="csccsccscccsc"
         style="fill:url(#linearGradient4877);fill-opacity:1"
         d="m 162.38536,712.91926 c -0.3537,-0.5722 -0.5183,-35.5494 -0.3658,-77.7271 l 0.2772,-76.6867 -2.9432,-1.6214 c -3.8536,-48.815 6.9274,-39.1284 190.69,-142.2011 112.7465,-63.2397 208.6885,-129.023 208.6411,-36.9208 0.1855,64.4265 -0.067,96.5693 -0.7785,99.2126 -1.2487,4.6372 -8.0567,11.9227 -15.9959,17.1178 -3.025,1.9794 -13.1331,8.0309 -22.5,13.3823 -84.0357,53.1941 -83.5852,49.1763 -219.1031,129.8928 0.346,-0.9015 -0.268,-1.0185 -2.2944,-0.4373 -2.7565,0.7905 -12.7267,6.5666 -97.1024,56.2549 -37.4376,22.0467 -37.1779,21.9137 -38.525,19.734 z"
         id="path3806-2"
         inkscape:connector-curvature="0" />
      <path
         sodipodi:nodetypes="cssssccsscscscsc"
         style="fill:url(#linearGradient4879);fill-opacity:1"
         d="m 160.17926,255.28556 c 1.4447,-0.902 3.2057,-63.285 2.9678,-126.9102 -0.1951,-52.175501 0.032,-70.415701 0.8761,-70.415701 1.0236,0 46.9852,24.4592 107.6371,57.280801 12.2375,6.6223 22.25,12.4182 22.25,12.8798 0,0.4617 0.496,0.8394 1.1022,0.8394 76.4512,39.5174 75.7225,39.7591 136.1478,70.6755 0.6875,0.01 8.675,4.0739 17.75,9.0422 9.075,4.9684 33.15,17.9138 53.5,28.7676 20.35,10.8538 38.9778,21.1474 41.3952,22.8745 6.014,4.2968 9.6896,9.1087 12.3543,16.1735 l 2.2505,5.9667 0.2744,95.3025 c 0.1855,64.4265 -0.067,96.5693 -0.7785,99.2126 -145.1576,-82.9977 -145.6028,-85.1769 -229.2392,-131.1304 -115.5372,-63.4812 -143.2667,-59.0924 -168.4877,-90.5588 z"
         id="path3808-5"
         inkscape:connector-curvature="0" />
      <path
         sodipodi:nodetypes="cccssssccsscscsc"
         style="fill:url(#linearGradient4881);fill-opacity:1"
         d="m 37.071056,479.45966 -1.3304,-2.5 -1.3303,-2.5 -0.2847,-91.6947 c -0.307,-98.8849 -0.3105,-98.808 4.9195,-109.0767 5.8,-11.3878 7.9218,-12.8798 49.3652,-34.7117 5.5,-2.8973 14.725004,-7.7579 20.500004,-10.8013 16.3071,-8.5938 51.121,-27.2743 52.9011,-28.3858 70.6384,-36.6129 50.269,-27.0188 132.0988,-71.6692 0,0.4617 0.496,0.8394 1.1022,0.8394 0.6062,0 20.5187,-10.3025 44.25,-22.8944 81.5476,-43.269301 89.0389,-47.088601 89.8521,-45.809201 0.4208,0.662 0.7719,32.2911 0.7804,70.286901 0.012,54.587 0.2776,69.0852 1.2653,69.0922 -4.1598,71.9974 14.3227,45.7995 -186.4321,155.4538 -77.117,42.1221 -74.0024,38.2743 -207.657104,124.3707 z"
         id="path4578-4"
         inkscape:connector-curvature="0" />
    </g>
  </g>
</svg>
