<?xml version="1.0" encoding="UTF-8" standalone="no"?>
<!-- Created with Inkscape (http://www.inkscape.org/) -->

<svg
   xmlns:dc="http://purl.org/dc/elements/1.1/"
   xmlns:cc="http://creativecommons.org/ns#"
   xmlns:rdf="http://www.w3.org/1999/02/22-rdf-syntax-ns#"
   xmlns:svg="http://www.w3.org/2000/svg"
   xmlns="http://www.w3.org/2000/svg"
   xmlns:sodipodi="http://sodipodi.sourceforge.net/DTD/sodipodi-0.dtd"
   xmlns:inkscape="http://www.inkscape.org/namespaces/inkscape"
   id="svg3390"
   version="1.1"
   inkscape:version="0.91 r13725"
   width="262.34985"
   height="289.03537"
   viewBox="0 0 262.34986 289.03537"
   sodipodi:docname="Buckeyelink.svg">
  <metadata
     id="metadata3396">
    <rdf:RDF>
      <cc:Work
         rdf:about="">
        <dc:format>image/svg+xml</dc:format>
        <dc:type
           rdf:resource="http://purl.org/dc/dcmitype/StillImage" />
        <dc:title></dc:title>
      </cc:Work>
    </rdf:RDF>
  </metadata>
  <defs
     id="defs3394" />
  <sodipodi:namedview
     pagecolor="#ffffff"
     bordercolor="#666666"
     borderopacity="1"
     objecttolerance="10"
     gridtolerance="10"
     guidetolerance="10"
     inkscape:pageopacity="0"
     inkscape:pageshadow="2"
     inkscape:window-width="1600"
     inkscape:window-height="851"
     id="namedview3392"
     showgrid="false"
     fit-margin-top="0"
     fit-margin-left="0"
     fit-margin-right="0"
     fit-margin-bottom="0"
     inkscape:zoom="1.2042789"
     inkscape:cx="212.21154"
     inkscape:cy="82.123839"
     inkscape:window-x="0"
     inkscape:window-y="25"
     inkscape:window-maximized="1"
     inkscape:current-layer="svg3390" />
  <g
     id="g3400"
     transform="translate(0.13882944,-0.63376523)">
    <path
       style="fill:#b91f24"
       d="m 117.19023,289.16027 c -1.92363,-0.3685 -1.73257,-0.74801 2.89083,-5.74182 10.48875,-11.32911 17.7111,-32.98433 20.38397,-61.11846 2.19187,-23.07133 -1.24557,-44.39323 -10.37426,-64.35 -1.58496,-3.465 -3.57066,-6.86569 -4.41265,-7.55709 -1.33608,-1.09713 -1.79977,-1.00451 -3.64375,0.72783 -2.81974,2.64902 -7.76257,12.86058 -11.63804,24.04347 -5.7982,16.73101 -11.328699,25.50135 -23.226726,36.83325 -16.570493,15.78205 -33.175524,22.96335 -53.100801,22.96492 -9.974764,7.8e-4 -19.499427,-1.52496 -25.5701899,-4.09605 l -3.5486133,-1.50291 3.1671293,-1.64657 c 7.2817209,-3.78571 9.8767199,-7.96351 14.8246099,-23.86685 4.072763,-13.09052 7.029438,-19.12583 13.036574,-26.61086 9.363511,-11.66716 22.292217,-20.01694 35.313495,-22.80661 3.730826,-0.79929 12.76631,-1.56237 20.958188,-1.77 10.325704,-0.2617 15.566694,-0.78421 18.523504,-1.84673 5.2337,-1.8807 10.39223,-6.0723 9.41635,-7.65131 -0.91418,-1.47916 -10.67499,-0.66918 -23.889854,1.98245 -21.10098,4.23402 -40.23031,1.84637 -58.949997,-7.3579 C 21.966706,130.22523 13.766775,122.231 6.5713445,107.78249 1.8784922,98.359188 -1.8472506,84.40328 0.67499997,85.695935 11.577724,91.283586 16.204646,91.783581 31.949999,89.075602 51.222162,85.761061 65.234672,87.554365 79.199997,95.122599 90.545163,101.27089 94.730621,105.96023 108,127.38978 c 3.80218,6.14039 7.19639,8.74075 11.57294,8.86625 3.20486,0.0919 3.27194,0.0246 3.04495,-3.05603 -0.35569,-4.82708 -5.6927,-14.67328 -14.14719,-26.1 C 87.050641,78.149552 83.689533,56.408008 96.67373,30.790511 102.3485,19.594332 114.77602,4.0168971 120.46053,0.9746367 c 1.58277,-0.84706773 1.75804,-0.45550278 2.31183,5.1646424 0.72973,7.4055899 3.32748,13.1502029 9.43334,20.8607199 16.66676,21.046874 19.04026,25.098335 20.87463,35.632042 1.28244,7.364332 0.5761,16.049582 -1.97921,24.336451 -2.57164,8.33984 -5.04793,13.020317 -11.47387,21.686988 -5.99511,8.0856 -8.3672,12.32158 -10.04501,17.93798 -1.15879,3.87897 -0.6345,8.40654 0.97346,8.40654 2.65126,0 9.90028,-8.8098 16.03675,-19.48959 10.58308,-18.418584 16.22135,-24.552417 30.67616,-33.372379 14.62441,-8.923448 30.2922,-13.430787 43.61393,-12.546934 14.70719,0.975777 35.60438,7.724776 40.43043,13.057501 1.50468,1.662641 1.41775,1.755157 -2.59984,2.766795 -5.96015,1.500784 -11.51521,7.145356 -18.37882,18.675007 -8.36997,14.06005 -19.04469,24.61517 -30.66821,30.3246 -4.68385,2.3007 -11.14861,4.88961 -14.36611,5.75313 -7.47916,2.00728 -21.46422,1.94086 -30.6,-0.14534 -17.62338,-4.02438 -22.21731,-4.04073 -26.77145,-0.0953 -4.67088,4.0466 -2.51407,4.51433 21.19231,4.59576 11.73103,0.0403 23.15164,0.3941 25.37914,0.78621 9.97772,1.75639 26.8088,9.00148 37.83075,16.28459 16.83428,11.12378 28.37157,30.64267 29.45255,49.82808 l 0.47736,8.47214 -3.50533,-2.74893 c -5.32572,-4.1765 -9.4111,-5.1544 -19.70533,-4.71676 -26.46606,1.12516 -35.92458,-0.16875 -48.86277,-6.68431 -16.63342,-8.37646 -23.99586,-17.02711 -32.94588,-38.71045 -2.77253,-6.71702 -5.11806,-10.90819 -7.42919,-13.275 -3.57629,-3.66246 -6.29418,-4.60845 -5.41233,-1.88384 0.28037,0.86625 1.93035,5.67922 3.66663,10.69549 6.12843,17.70561 7.25498,25.24326 7.24558,48.47951 -0.007,17.72345 -0.30149,22.24402 -2.04689,31.43769 -4.51734,23.79453 -10.77628,45.80189 -13.30176,46.77101 -1.54194,0.5917 -9.4904,0.53046 -12.77315,-0.0984 z"
       id="path3402"
       inkscape:connector-curvature="0"
       sodipodi:nodetypes="sssssssssscsssssssssssssssssssssssssssssssssssssssscsssssssssss" />
  </g>
</svg>
