<?xml version="1.0" encoding="UTF-8" standalone="no"?>
<!-- Created with Inkscape (http://www.inkscape.org/) -->

<svg
   xmlns:dc="http://purl.org/dc/elements/1.1/"
   xmlns:cc="http://creativecommons.org/ns#"
   xmlns:rdf="http://www.w3.org/1999/02/22-rdf-syntax-ns#"
   xmlns:svg="http://www.w3.org/2000/svg"
   xmlns="http://www.w3.org/2000/svg"
   xmlns:sodipodi="http://sodipodi.sourceforge.net/DTD/sodipodi-0.dtd"
   xmlns:inkscape="http://www.inkscape.org/namespaces/inkscape"
   id="svg2"
   version="1.1"
   inkscape:version="0.48.4 r9939"
   width="571.85199"
   height="572.14429"
   sodipodi:docname="Button-Fill-Black-Large.png">
  <metadata
     id="metadata8">
    <rdf:RDF>
      <cc:Work
         rdf:about="">
        <dc:format>image/svg+xml</dc:format>
        <dc:type
           rdf:resource="http://purl.org/dc/dcmitype/StillImage" />
        <dc:title></dc:title>
      </cc:Work>
    </rdf:RDF>
  </metadata>
  <defs
     id="defs6" />
  <sodipodi:namedview
     pagecolor="#ffffff"
     bordercolor="#666666"
     borderopacity="1"
     objecttolerance="10"
     gridtolerance="10"
     guidetolerance="10"
     inkscape:pageopacity="0"
     inkscape:pageshadow="2"
     inkscape:window-width="1600"
     inkscape:window-height="851"
     id="namedview4"
     showgrid="false"
     fit-margin-top="0"
     fit-margin-left="0"
     fit-margin-right="0"
     fit-margin-bottom="0"
     inkscape:zoom="0.39333333"
     inkscape:cx="275.25651"
     inkscape:cy="298.38687"
     inkscape:window-x="0"
     inkscape:window-y="25"
     inkscape:window-maximized="1"
     inkscape:current-layer="svg2" />
  <g
     id="g2987"
     transform="translate(-14.573998,-13.530721)">
    <path
       style="fill:#fdfdfd"
       d="M 73.728814,289.83051 129.66102,150 294.91525,45.762712 511.01695,147.45763 551.69492,310.16949 465.25424,503.38983 312.71186,538.98305 139.83051,483.05085 z"
       id="path2991"
       inkscape:connector-curvature="0"
       sodipodi:nodetypes="ccccccccc" />
    <path
       style="fill:#000000"
       d="M 281.5,585.40539 C 262.47067,583.47901 255.62067,582.51686 243,579.99769 169.69623,565.36574 103.82072,520.77256 61.563089,457.17741 37.09472,420.35402 21.387806,377.37214 15.819367,332 c -1.660492,-13.52984 -1.660492,-51.47016 0,-65 C 21.387806,221.62786 37.09472,178.64598 61.563089,141.82259 108.69001,70.899444 182.86095,25.268326 268,14.819367 c 5.775,-0.708755 20.4,-1.288646 32.5,-1.288646 12.1,0 26.725,0.579891 32.5,1.288646 85.13905,10.448959 159.30999,56.080077 206.43691,127.003223 24.46837,36.82339 40.17528,79.80527 45.74372,125.17741 1.6605,13.52984 1.6605,51.47016 0,65 -5.56844,45.37214 -21.27535,88.35402 -45.74372,125.17741 -46.24627,69.59782 -118.68584,114.99549 -201.55783,126.31573 -10.92741,1.49268 -48.07689,2.7527 -56.37908,1.91225 z m 23.23687,-109.39174 c 0.68028,-0.008 39.02415,-25.19996 85.20859,-55.98323 65.62616,-43.74174 84.36309,-56.68626 85.76313,-59.25 1.66358,-3.04635 1.79141,-7.41901 1.79141,-61.28042 0,-53.80576 -0.12921,-58.23658 -1.78679,-61.27149 -1.39259,-2.54974 -20.03477,-15.4423 -84.5,-58.43853 -45.49227,-30.34188 -84.38412,-55.74928 -86.42634,-56.46089 -2.12627,-0.7409 -5.11747,-1.01297 -6.99918,-0.63663 -1.93263,0.38653 -37.76336,23.63734 -86.99546,56.45195 -65.4161,43.60173 -84.10089,56.51163 -85.50082,59.07517 -1.66358,3.04635 -1.79141,7.41901 -1.79141,61.28042 0,53.80576 0.12921,58.23658 1.78679,61.27149 1.39259,2.54972 20.03509,15.44259 84.5,58.43892 45.49227,30.34209 84.28821,55.74878 86.21321,56.4593 1.925,0.71052 4.4,1.08165 5.5,0.82473 1.1,-0.25692 2.55659,-0.47328 3.23687,-0.48079 z m -79.99028,-83.41727 -58.7534,-39.2694 26.61909,-17.74265 26.61909,-17.74265 32.85862,21.82916 32.85862,21.82916 0.0257,35.25 c 0.0141,19.3875 -0.3118,35.2198 -0.7243,35.18289 -0.4125,-0.0369 -27.18903,-17.73834 -59.50341,-39.33651 z m 91.27911,4.15362 0.0257,-35.25 32.85862,-21.82916 32.85862,-21.82916 26.61911,17.74266 26.61911,17.74266 -58.99957,39.3365 C 343.55752,414.29858 316.78098,432 316.50386,432 c -0.27712,0 -0.4923,-15.8625 -0.47816,-35.25 z M 273.69444,317.56008 C 259.50139,308.02426 247.68742,300.02075 247.44117,299.77451 247.01214,299.34547 299.44584,264 300.51134,264 c 0.52357,0 51.33312,33.65354 52.76193,34.94669 0.73787,0.66781 -51.45504,36.10834 -53.02019,36.00228 -0.41419,-0.0281 -12.36558,-7.85307 -26.55864,-17.38889 z M 154,299.51361 l 0,-25.51472 18.75,12.67269 c 10.3125,6.96998 18.80581,12.70773 18.87402,12.75056 0.0682,0.0428 -8.36928,5.82174 -18.75,12.84203 L 154,325.02834 154,299.51361 z M 427.94904,312.17418 409.39808,299.49327 428.19904,286.75831 447,274.02335 l 0,25.48832 c 0,14.01858 -0.1125,25.45573 -0.25,25.41588 -0.1375,-0.0399 -8.59793,-5.77886 -18.80096,-12.75337 z m -235.70243,-48.905 -26.25339,-17.59623 58.99953,-39.33648 C 257.4425,184.70141 284.21902,167 284.49614,167 c 0.27712,0 0.4923,15.8625 0.47816,35.25 l -0.0257,35.25 -32.73977,21.75 c -18.00687,11.9625 -32.95781,21.71972 -33.2243,21.68271 -0.2665,-0.037 -12.29857,-7.9856 -26.73793,-17.66353 z M 348.77673,259.24815 316.05346,237.5 l -0.0267,-35.25 c -0.0147,-19.3875 0.20001,-35.25 0.47713,-35.25 0.27712,0 27.05366,17.70142 59.50342,39.3365 l 58.99957,39.3365 -26.50034,17.6635 c -14.57519,9.71492 -26.61423,17.66267 -26.75343,17.66165 -0.13919,-0.001 -14.97855,-9.78852 -32.97635,-21.75 z"
       id="path2989"
       inkscape:connector-curvature="0" />
  </g>
</svg>
