<?xml version="1.0" encoding="UTF-8" standalone="no"?>
<!-- Created with Inkscape (http://www.inkscape.org/) -->

<svg
   xmlns:dc="http://purl.org/dc/elements/1.1/"
   xmlns:cc="http://creativecommons.org/ns#"
   xmlns:rdf="http://www.w3.org/1999/02/22-rdf-syntax-ns#"
   xmlns:svg="http://www.w3.org/2000/svg"
   xmlns="http://www.w3.org/2000/svg"
   xmlns:sodipodi="http://sodipodi.sourceforge.net/DTD/sodipodi-0.dtd"
   xmlns:inkscape="http://www.inkscape.org/namespaces/inkscape"
   id="svg3066"
   version="1.1"
   inkscape:version="0.48.4 r9939"
   width="400"
   height="400"
   sodipodi:docname="cssdesignawards.png">
  <metadata
     id="metadata3072">
    <rdf:RDF>
      <cc:Work
         rdf:about="">
        <dc:format>image/svg+xml</dc:format>
        <dc:type
           rdf:resource="http://purl.org/dc/dcmitype/StillImage" />
        <dc:title></dc:title>
      </cc:Work>
    </rdf:RDF>
  </metadata>
  <defs
     id="defs3070" />
  <sodipodi:namedview
     pagecolor="#ffffff"
     bordercolor="#666666"
     borderopacity="1"
     objecttolerance="10"
     gridtolerance="10"
     guidetolerance="10"
     inkscape:pageopacity="0"
     inkscape:pageshadow="2"
     inkscape:window-width="1600"
     inkscape:window-height="851"
     id="namedview3068"
     showgrid="false"
     fit-margin-top="0"
     fit-margin-left="0"
     fit-margin-right="0"
     fit-margin-bottom="0"
     inkscape:zoom="1.18"
     inkscape:cx="265.25424"
     inkscape:cy="194.0678"
     inkscape:window-x="0"
     inkscape:window-y="25"
     inkscape:window-maximized="1"
     inkscape:current-layer="svg3066" />
  <g
     id="g3076">
    <path
       style="fill:#ffffff"
       d="M 62.711864,191.52542 84.745763,88.983051 197.45763,59.322034 316.10169,74.576271 347.45763,197.45763 333.05085,321.18644 199.15254,344.91525 89.830509,295.76271 z"
       id="path3080"
       inkscape:connector-curvature="0"
       sodipodi:nodetypes="ccccccccc" />
    <path
       style="fill:#6639b6"
       d="M 0,200 0,0 l 200,0 200,0 0,200 0,200 -200,0 -200,0 0,-200 z m 289.95806,80.33025 40.1763,-39.66975 -13.81718,-13.89947 c -7.59945,-7.6447 -34.88302,-34.65108 -60.63016,-60.01418 l -46.81298,-46.11472 -19.96585,19.96586 -19.96586,19.96585 40.12166,39.9375 40.12165,39.9375 -40.34282,39.72958 L 168.5,319.898 l 40.64088,0.051 40.64089,0.051 40.17629,-39.66975 z M 212.50938,259.93213 232.5,239.86425 192.11227,200.15529 151.72454,160.44633 192.05053,120.72317 232.37653,81 l -40.53027,0 -40.53027,0 -40.27466,39.70749 -40.27466,39.70749 60.36666,59.74211 c 33.20167,32.85816 60.59589,59.76479 60.87605,59.79251 0.28015,0.0277 9.50515,-8.98014 20.5,-20.01747 z"
       id="path3078"
       inkscape:connector-curvature="0" />
  </g>
</svg>
