<?xml version="1.0" encoding="UTF-8" standalone="no"?>
<!-- Created with Inkscape (http://www.inkscape.org/) -->

<svg
   xmlns:dc="http://purl.org/dc/elements/1.1/"
   xmlns:cc="http://creativecommons.org/ns#"
   xmlns:rdf="http://www.w3.org/1999/02/22-rdf-syntax-ns#"
   xmlns:svg="http://www.w3.org/2000/svg"
   xmlns="http://www.w3.org/2000/svg"
   xmlns:sodipodi="http://sodipodi.sourceforge.net/DTD/sodipodi-0.dtd"
   xmlns:inkscape="http://www.inkscape.org/namespaces/inkscape"
   id="svg2"
   version="1.1"
   inkscape:version="0.48.4 r9939"
   width="600"
   height="599.9975"
   xml:space="preserve"
   sodipodi:docname="google_plus_g_2015.ai"><metadata
     id="metadata8"><rdf:RDF><cc:Work
         rdf:about=""><dc:format>image/svg+xml</dc:format><dc:type
           rdf:resource="http://purl.org/dc/dcmitype/StillImage" /><dc:title></dc:title></cc:Work></rdf:RDF></metadata><defs
     id="defs6"><clipPath
       clipPathUnits="userSpaceOnUse"
       id="clipPath16"><path
         d="m 540,510 480,0 0,-479.998 -480,0 0,479.998 z"
         clip-rule="evenodd"
         id="path18"
         inkscape:connector-curvature="0" /></clipPath><radialGradient
       fx="563.25"
       fy="487.5"
       cx="563.25"
       cy="487.5"
       r="608.289"
       gradientUnits="userSpaceOnUse"
       spreadMethod="pad"
       id="radialGradient22"><stop
         style="stop-opacity:1;stop-color:#df554b"
         offset="0"
         id="stop24" /><stop
         style="stop-opacity:1;stop-color:#d93f31"
         offset="1"
         id="stop26" /></radialGradient><clipPath
       clipPathUnits="userSpaceOnUse"
       id="clipPath34"><path
         d="m 1050,269.998 c 0,-131.914 106.61,-239.083 238.3,-239.996 l 0,0 3.4,0 c 131.13,0.909 237.39,107.164 238.3,238.293 l 0,0 0,1.584 0,1.825 C 1529.08,403.401 1421.91,510 1290,510 l 0,0 c -132.48,0 -240,-107.522 -240,-240.002"
         id="path36"
         inkscape:connector-curvature="0" /></clipPath><radialGradient
       fx="1073.25"
       fy="487.5"
       cx="1073.25"
       cy="487.5"
       r="608.289"
       gradientUnits="userSpaceOnUse"
       spreadMethod="pad"
       id="radialGradient40"><stop
         style="stop-opacity:1;stop-color:#df554b"
         offset="0"
         id="stop42" /><stop
         style="stop-opacity:1;stop-color:#d93f31"
         offset="1"
         id="stop44" /></radialGradient><clipPath
       clipPathUnits="userSpaceOnUse"
       id="clipPath52"><path
         d="m 760.62,315.326 0.041,0.043 c -20.612,20.163 -54.707,19.251 -75.869,-1.956 l 0,0 c -22.25,-22.298 -22.49,-58.735 -0.537,-81.334 l 0,0 c 21.952,-22.599 60.304,-22.825 80.878,-0.373 l 0,0 c 5.71,6.232 8.933,13.617 10.52,21.669 l 0,0 -51.318,0 -0.001,37.854 90.391,0 c 3.957,-32.466 -1.036,-64.187 -22.098,-86.818 l 0,0 c -32.733,-35.17 -91.568,-37.02 -129.469,-5.965 l 0,0 168.443,-168.444 188.399,0 0,169.803 -123.138,123.137 0,-43.956 -43.956,0 -64.313,64.313 -27.973,-27.973 z"
         id="path54"
         inkscape:connector-curvature="0" /></clipPath><linearGradient
       x1="0"
       y1="0"
       x2="1"
       y2="0"
       gradientUnits="userSpaceOnUse"
       gradientTransform="matrix(420.603,-422.20499,-420.603,-422.20499,570.82642,470.9093)"
       spreadMethod="pad"
       id="linearGradient60"><stop
         style="stop-opacity:1;stop-color:#ba3e35"
         offset="0"
         id="stop62" /><stop
         style="stop-opacity:1;stop-color:#e04335"
         offset="1"
         id="stop64" /></linearGradient><clipPath
       clipPathUnits="userSpaceOnUse"
       id="clipPath72"><path
         d="m 0,0 1560,0 0,540 L 0,540 0,0 z"
         id="path74"
         inkscape:connector-curvature="0" /></clipPath><clipPath
       clipPathUnits="userSpaceOnUse"
       id="clipPath126"><path
         d="m 1270.28,319.35 0.04,0.048 c -23.12,22.625 -61.38,21.601 -85.13,-2.195 l 0,0 c -24.96,-25.02 -25.23,-65.906 -0.6,-91.264 l 0,0 c 24.63,-25.357 67.67,-25.612 90.75,-0.418 l 0,0 c 6.41,6.992 10.03,15.279 11.81,24.314 l 0,0 -57.59,0 0,42.476 101.43,0 c 4.44,-36.429 -1.16,-72.024 -24.8,-97.417 l 0,0 c -36.73,-39.464 -102.751,-41.54 -145.27,-6.694 l 0,0 156.57,-156.574 0.06,-0.064 c 104.67,11.98 188.95,91.386 208.28,193.657 l 0,0 -0.17,0.169 -102.51,102.507 0,-49.322 -49.32,0 -72.16,72.165 -31.39,-31.388 z"
         id="path128"
         inkscape:connector-curvature="0" /></clipPath><linearGradient
       x1="0"
       y1="0"
       x2="1"
       y2="0"
       gradientUnits="userSpaceOnUse"
       gradientTransform="matrix(430.11899,-430.12701,-430.11899,-430.12701,1067.9176,482.16949)"
       spreadMethod="pad"
       id="linearGradient134"><stop
         style="stop-opacity:1;stop-color:#ba3e35"
         offset="0"
         id="stop136" /><stop
         style="stop-opacity:1;stop-color:#e04335"
         offset="1"
         id="stop138" /></linearGradient><clipPath
       clipPathUnits="userSpaceOnUse"
       id="clipPath146"><path
         d="m 0,0 1560,0 0,540 L 0,540 0,0 z"
         id="path148"
         inkscape:connector-curvature="0" /></clipPath></defs><sodipodi:namedview
     pagecolor="#ffffff"
     bordercolor="#666666"
     borderopacity="1"
     objecttolerance="10"
     gridtolerance="10"
     guidetolerance="10"
     inkscape:pageopacity="0"
     inkscape:pageshadow="2"
     inkscape:window-width="1600"
     inkscape:window-height="851"
     id="namedview4"
     showgrid="false"
     fit-margin-top="0"
     fit-margin-left="0"
     fit-margin-right="0"
     fit-margin-bottom="0"
     inkscape:zoom="0.76923077"
     inkscape:cx="310.4"
     inkscape:cy="299.9975"
     inkscape:window-x="0"
     inkscape:window-y="25"
     inkscape:window-maximized="1"
     inkscape:current-layer="g10" /><g
     id="g10"
     inkscape:groupmode="layer"
     inkscape:label="google_plus_g_2015"
     transform="matrix(1.25,0,0,-1.25,-675,637.5)"><g
       id="g12"><g
         id="g14"
         clip-path="url(#clipPath16)"><g
           id="g20"><path
             d="m 540,510 480,0 0,-479.998 -480,0 0,479.998 z"
             style="fill:url(#radialGradient22);fill-rule:evenodd;stroke:none"
             id="path28"
             inkscape:connector-curvature="0" /></g></g></g><g
       id="g48"><g
         id="g50"
         clip-path="url(#clipPath52)"><g
           id="g56"><g
             id="g58"><path
               d="m 760.62,315.326 0.041,0.043 c -20.612,20.163 -54.707,19.251 -75.869,-1.956 l 0,0 c -22.25,-22.298 -22.49,-58.735 -0.537,-81.334 l 0,0 c 21.952,-22.599 60.304,-22.825 80.878,-0.373 l 0,0 c 5.71,6.232 8.933,13.617 10.52,21.669 l 0,0 -51.318,0 -0.001,37.854 90.391,0 c 3.957,-32.466 -1.036,-64.187 -22.098,-86.818 l 0,0 c -32.733,-35.17 -91.568,-37.02 -129.469,-5.965 l 0,0 168.443,-168.444 188.399,0 0,169.803 -123.138,123.137 0,-43.956 -43.956,0 -64.313,64.313 -27.973,-27.973 z"
               style="fill:url(#linearGradient60);stroke:none"
               id="path66"
               inkscape:connector-curvature="0" /></g></g></g></g><g
       id="g68"><g
         id="g70"
         clip-path="url(#clipPath72)"><g
           id="g76"
           transform="translate(873.648,229.508)"><path
             d="m 0,0 0,33.499 -33.5,0 0,23.885 33.5,0 0,33.5 23.885,0 0,-33.5 33.499,0 0,-23.885 -33.499,0 L 23.885,0 0,0 z"
             style="fill:#ad352d;fill-opacity:1;fill-rule:evenodd;stroke:none"
             id="path78"
             inkscape:connector-curvature="0" /></g><g
           id="g80"
           transform="translate(656.684,202.784)"><path
             d="m 0,0 c -37.237,37.739 -36.829,98.59 0.912,135.827 36.484,35.999 94.283,36.526 131.749,2.438 l -27.973,-27.973 0.041,0.043 C 84.117,130.498 50.022,129.586 28.86,108.379 6.61,86.081 6.37,49.644 28.323,27.045 50.275,4.446 88.627,4.22 109.2,26.672 c 5.711,6.232 8.934,13.617 10.521,21.669 l -51.318,0 -0.001,38.304 90.391,0 C 163.816,54.466 157.757,22.008 136.695,-0.623 101.8,-38.117 37.237,-37.741 0,0"
             style="fill:#ad352d;fill-opacity:1;fill-rule:evenodd;stroke:none"
             id="path82"
             inkscape:connector-curvature="0" /></g><g
           id="g84"
           transform="translate(872.898,231.758)"><path
             d="m 0,0 0,33.499 -33.5,0 0,23.885 33.5,0 0,33.5 23.885,0 0,-33.5 33.499,0 0,-23.885 -33.499,0 L 23.885,0 0,0 z"
             style="fill:#efefef;fill-opacity:1;fill-rule:evenodd;stroke:none"
             id="path86"
             inkscape:connector-curvature="0" /></g><g
           id="g88"
           transform="translate(655.934,205.034)"><path
             d="m 0,0 c -37.237,37.739 -36.829,98.59 0.912,135.827 36.484,35.999 94.283,36.526 131.749,2.438 l -27.973,-27.973 0.041,0.043 C 84.117,130.498 50.022,129.586 28.86,108.379 6.61,86.081 6.37,49.644 28.323,27.045 50.275,4.446 88.627,4.22 109.2,26.672 c 5.711,6.232 8.934,13.617 10.521,21.669 l -51.318,0 -0.001,38.304 90.391,0 C 163.816,54.466 157.757,22.008 136.695,-0.623 101.8,-38.117 37.237,-37.741 0,0"
             style="fill:#efefef;fill-opacity:1;fill-rule:evenodd;stroke:none"
             id="path90"
             inkscape:connector-curvature="0" /></g><path
           d="m 872.898,322.642 23.885,0 0,-2.682 -23.885,0 0,2.682 z"
           style="fill:#ffffff;fill-opacity:1;fill-rule:evenodd;stroke:none"
           id="path92"
           inkscape:connector-curvature="0" /><path
           d="m 896.783,289.142 33.499,0 0,-2.682 -33.499,0 0,2.682 z"
           style="fill:#ffffff;fill-opacity:1;fill-rule:evenodd;stroke:none"
           id="path94"
           inkscape:connector-curvature="0" /><path
           d="m 839.398,289.142 33.5,0 0,-2.682 -33.5,0 0,2.682 z"
           style="fill:#ffffff;fill-opacity:1;fill-rule:evenodd;stroke:none"
           id="path96"
           inkscape:connector-curvature="0" /><g
           id="g98"
           transform="translate(656.846,340.861)"><path
             d="m 0,0 c 36.484,35.999 94.283,36.526 131.749,2.438 l -1.447,-1.447 0.02,0.02 C 92.829,33.807 36.024,32.845 0,-2.7 -18.691,-21.142 -28.226,-45.375 -28.566,-69.725 -28.918,-44.474 -19.382,-19.124 0,0"
             style="fill:#ffffff;fill-opacity:1;fill-rule:evenodd;stroke:none"
             id="path100"
             inkscape:connector-curvature="0" /></g><g
           id="g102"
           transform="translate(814.727,288.979)"><path
             d="m 0,0 -90.391,0 0,2.7 L 0,2.7 C 1.166,-4.777 1.735,-12.268 1.657,-19.653 1.588,-13.144 1.024,-6.566 0,0"
             style="fill:#ffffff;fill-opacity:1;fill-rule:evenodd;stroke:none"
             id="path104"
             inkscape:connector-curvature="0" /></g><g
           id="g106"
           transform="translate(684.257,229.379)"><path
             d="M 0,0 C -11.216,11.545 -16.639,26.703 -16.294,41.75 -15.969,27.601 -10.545,13.554 0,2.7 21.952,-19.899 60.304,-20.125 80.877,2.327 c 5.066,5.528 8.174,11.964 9.919,18.969 l 0.602,0 C 89.811,13.244 86.588,5.859 80.877,-0.373 60.304,-22.825 21.952,-22.599 0,0"
             style="fill:#ffffff;fill-opacity:1;fill-rule:evenodd;stroke:none"
             id="path108"
             inkscape:connector-curvature="0" /></g><g
           id="g110"
           transform="translate(30,50.57)" /><g
           id="g114"
           transform="translate(377.489,305.389)" /><g
           id="g118"
           transform="translate(162.408,211.41)" /></g></g></g></svg>