<?xml version="1.0" encoding="UTF-8" standalone="no"?>
<!-- Created with Inkscape (http://www.inkscape.org/) -->

<svg
   xmlns:osb="http://www.openswatchbook.org/uri/2009/osb"
   xmlns:dc="http://purl.org/dc/elements/1.1/"
   xmlns:cc="http://creativecommons.org/ns#"
   xmlns:rdf="http://www.w3.org/1999/02/22-rdf-syntax-ns#"
   xmlns:svg="http://www.w3.org/2000/svg"
   xmlns="http://www.w3.org/2000/svg"
   xmlns:xlink="http://www.w3.org/1999/xlink"
   xmlns:sodipodi="http://sodipodi.sourceforge.net/DTD/sodipodi-0.dtd"
   xmlns:inkscape="http://www.inkscape.org/namespaces/inkscape"
   id="svg2"
   version="1.1"
   inkscape:version="0.48.4 r9939"
   width="246.53046"
   height="274.73865"
   sodipodi:docname="GoogleMusic.svg">
  <metadata
     id="metadata8">
    <rdf:RDF>
      <cc:Work
         rdf:about="">
        <dc:format>image/svg+xml</dc:format>
        <dc:type
           rdf:resource="http://purl.org/dc/dcmitype/StillImage" />
        <dc:title></dc:title>
      </cc:Work>
    </rdf:RDF>
  </metadata>
  <defs
     id="defs6">
    <linearGradient
       id="linearGradient5780"
       osb:paint="solid">
      <stop
         style="stop-color:#000000;stop-opacity:1;"
         offset="0"
         id="stop5782" />
    </linearGradient>
    <linearGradient
       id="linearGradient4070">
      <stop
         id="stop4072"
         offset="0"
         style="stop-color:#000000;stop-opacity:0;" />
      <stop
         id="stop4074"
         offset="1"
         style="stop-color:#000000;stop-opacity:1;" />
    </linearGradient>
    <linearGradient
       id="linearGradient4060">
      <stop
         style="stop-color:#000000;stop-opacity:0;"
         offset="0"
         id="stop4062" />
      <stop
         style="stop-color:#000000;stop-opacity:1;"
         offset="1"
         id="stop4064" />
    </linearGradient>
    <linearGradient
       inkscape:collect="always"
       xlink:href="#linearGradient4060"
       id="linearGradient4068"
       x1="279.21597"
       y1="170.45642"
       x2="325.31006"
       y2="170.45642"
       gradientUnits="userSpaceOnUse" />
    <linearGradient
       inkscape:collect="always"
       xlink:href="#linearGradient4060"
       id="linearGradient5534"
       gradientUnits="userSpaceOnUse"
       x1="279.21597"
       y1="170.45642"
       x2="325.31006"
       y2="170.45642" />
    <linearGradient
       inkscape:collect="always"
       xlink:href="#linearGradient4060"
       id="linearGradient5536"
       gradientUnits="userSpaceOnUse"
       x1="279.21597"
       y1="170.45642"
       x2="325.31006"
       y2="170.45642" />
    <linearGradient
       inkscape:collect="always"
       xlink:href="#linearGradient4060"
       id="linearGradient5550"
       gradientUnits="userSpaceOnUse"
       x1="279.21597"
       y1="170.45642"
       x2="325.31006"
       y2="170.45642" />
    <linearGradient
       inkscape:collect="always"
       xlink:href="#linearGradient4060"
       id="linearGradient5617"
       gradientUnits="userSpaceOnUse"
       x1="279.21597"
       y1="170.45642"
       x2="325.31006"
       y2="170.45642" />
    <linearGradient
       inkscape:collect="always"
       xlink:href="#linearGradient4060"
       id="linearGradient5619"
       gradientUnits="userSpaceOnUse"
       x1="279.21597"
       y1="170.45642"
       x2="325.31006"
       y2="170.45642" />
    <linearGradient
       inkscape:collect="always"
       xlink:href="#linearGradient4060"
       id="linearGradient5621"
       gradientUnits="userSpaceOnUse"
       x1="279.21597"
       y1="170.45642"
       x2="325.31006"
       y2="170.45642" />
    <linearGradient
       inkscape:collect="always"
       xlink:href="#linearGradient4060"
       id="linearGradient5623"
       gradientUnits="userSpaceOnUse"
       x1="279.21597"
       y1="170.45642"
       x2="325.31006"
       y2="170.45642" />
    <linearGradient
       inkscape:collect="always"
       xlink:href="#linearGradient5780"
       id="linearGradient5784"
       x1="538.69434"
       y1="252.84915"
       x2="583.53809"
       y2="252.84915"
       gradientUnits="userSpaceOnUse" />
    <filter
       inkscape:collect="always"
       id="filter5878"
       color-interpolation-filters="sRGB">
      <feGaussianBlur
         inkscape:collect="always"
         stdDeviation="0.5575"
         id="feGaussianBlur5880" />
    </filter>
    <filter
       inkscape:collect="always"
       id="filter6055"
       color-interpolation-filters="sRGB">
      <feGaussianBlur
         inkscape:collect="always"
         stdDeviation="1.115"
         id="feGaussianBlur6057" />
    </filter>
  </defs>
  <sodipodi:namedview
     pagecolor="#ffffff"
     bordercolor="#666666"
     borderopacity="1"
     objecttolerance="10"
     gridtolerance="10"
     guidetolerance="10"
     inkscape:pageopacity="0"
     inkscape:pageshadow="2"
     inkscape:window-width="1600"
     inkscape:window-height="851"
     id="namedview4"
     showgrid="false"
     inkscape:zoom="1.5733333"
     inkscape:cx="172.97003"
     inkscape:cy="133.98198"
     inkscape:window-x="0"
     inkscape:window-y="25"
     inkscape:window-maximized="1"
     inkscape:current-layer="svg2"
     fit-margin-top="0"
     fit-margin-left="0"
     fit-margin-right="0"
     fit-margin-bottom="0" />
  <g
     id="g6075"
     transform="translate(1.4027447,-30.82512)">
    <g
       id="g3007"
       transform="translate(-303.4506,-6.7183265)">
      <path
         sodipodi:nodetypes="sssscccssssss"
         inkscape:connector-curvature="0"
         id="path3038"
         d="m 310.35334,310.52495 c -2.9978,-1.5316 -4.8363,-4.03277 -6.23717,-6.75561 -2.04507,-3.97499 -2.00388,-4.78461 -2.05794,-129.5 -0.0562,-129.603557 -0.0973,-129.477208 5.98555,-133.999997 5.79237,-4.306809 13.39495,-2.855403 18.57121,-0.140481 32.37315,17.552879 32.45759,17.512009 32.45759,17.512009 126.4439,71.875269 127.38995,72.503249 168.73967,95.771249 6.12206,3.44102 12.64238,7.58338 14.48959,9.20525 8.33706,7.32004 8.3694,15.52836 0.0917,23.27217 -1.83443,1.71611 -35.28532,21.25019 -74.33532,43.40907 -39.05,22.15888 -86.75,49.2856 -106,60.28161 -31.99181,18.2744 -40.84402,22.98324 -45.44703,22.68912 -2.6376,-0.16853 -3.83568,-0.50689 -6.25785,-1.74439 z"
         style="fill:#f35229;fill-opacity:1" />
      <path
         inkscape:connector-curvature="0"
         id="path3085"
         d="m 420.05253,76.303153 c -54.97579,0 -99.53125,44.677607 -99.53125,99.781247 0,45.62221 30.53666,84.11186 72.25,96 22.61815,-12.87294 49.14195,-27.97804 74.84375,-42.5625 18.52069,-10.50955 35.49271,-20.29222 48.71875,-28 2.13078,-8.12246 3.28125,-16.64461 3.28125,-25.4375 0,-55.10364 -44.5867,-99.781247 -99.5625,-99.781247 z"
         style="fill:#fccd17;fill-opacity:1" />
    </g>
    <path
       id="path3133"
       d="m 179.87102,167.01723 c 0,34.37738 -27.86838,62.24576 -62.24576,62.24576 -34.377388,0 -62.245762,-27.86838 -62.245762,-62.24576 0,-34.37739 27.868374,-62.24576 62.245762,-62.24576 34.37738,0 62.24576,27.86837 62.24576,62.24576 z"
       style="fill:#fb8e03;fill-opacity:1;stroke:none"
       inkscape:connector-curvature="0" />
    <path
       style="fill:#4d4d4d;fill-opacity:1;stroke:none;filter:url(#filter6055)"
       d="m 116.14682,131.9269 0,37.75 c -2.14823,-1.07874 -4.60503,-1.6875 -7.1875,-1.6875 -8.66108,0 -15.65625,6.86329 -15.65625,15.3125 0,8.44921 6.99517,15.28125 15.65625,15.28125 8.66108,0 15.6875,-6.83204 15.6875,-15.28125 0,-0.52808 -0.009,-1.07945 -0.0625,-1.59375 l 0,-33.71875 13.5625,0 0,-16.0625 -13.5625,0 -6.96875,0 z"
       id="path5804"
       inkscape:connector-curvature="0"
       sodipodi:nodetypes="ccssssccccccc" />
    <path
       sodipodi:nodetypes="ccssssccccccc"
       inkscape:connector-curvature="0"
       id="rect5563"
       d="m 116.14682,131.9269 0,37.75 c -2.14823,-1.07874 -4.60503,-1.6875 -7.1875,-1.6875 -8.66108,0 -15.65625,6.86329 -15.65625,15.3125 0,8.44921 6.99517,15.28125 15.65625,15.28125 8.66108,0 15.6875,-6.83204 15.6875,-15.28125 0,-0.52808 -0.009,-1.07945 -0.0625,-1.59375 l 0,-33.71875 13.5625,0 0,-16.0625 -13.5625,0 -6.96875,0 z"
       style="fill:#ffffff;fill-opacity:1;stroke:none" />
  </g>
  <g
     inkscape:groupmode="layer"
     id="layer1"
     inkscape:label="Layer007"
     style="display:inline"
     transform="translate(1.4027447,-30.82512)" />
  <g
     inkscape:groupmode="layer"
     id="layer2"
     inkscape:label="Layer008"
     style="display:inline"
     transform="translate(1.4027447,-30.82512)" />
</svg>
