<?xml version="1.0" encoding="UTF-8" standalone="no"?>
<!-- Created with Inkscape (http://www.inkscape.org/) -->

<svg
   xmlns:dc="http://purl.org/dc/elements/1.1/"
   xmlns:cc="http://creativecommons.org/ns#"
   xmlns:rdf="http://www.w3.org/1999/02/22-rdf-syntax-ns#"
   xmlns:svg="http://www.w3.org/2000/svg"
   xmlns="http://www.w3.org/2000/svg"
   xmlns:sodipodi="http://sodipodi.sourceforge.net/DTD/sodipodi-0.dtd"
   xmlns:inkscape="http://www.inkscape.org/namespaces/inkscape"
   id="svg2"
   version="1.1"
   inkscape:version="0.48.4 r9939"
   width="483.8158"
   height="483.8013"
   sodipodi:docname="kongregate.png">
  <metadata
     id="metadata8">
    <rdf:RDF>
      <cc:Work
         rdf:about="">
        <dc:format>image/svg+xml</dc:format>
        <dc:type
           rdf:resource="http://purl.org/dc/dcmitype/StillImage" />
        <dc:title></dc:title>
      </cc:Work>
    </rdf:RDF>
  </metadata>
  <defs
     id="defs6" />
  <sodipodi:namedview
     pagecolor="#ffffff"
     bordercolor="#666666"
     borderopacity="1"
     objecttolerance="10"
     gridtolerance="10"
     guidetolerance="10"
     inkscape:pageopacity="0"
     inkscape:pageshadow="2"
     inkscape:window-width="1600"
     inkscape:window-height="851"
     id="namedview4"
     showgrid="false"
     fit-margin-top="0"
     fit-margin-left="0"
     fit-margin-right="0"
     fit-margin-bottom="0"
     inkscape:zoom="1.3037281"
     inkscape:cx="256.27767"
     inkscape:cy="243.41743"
     inkscape:window-x="0"
     inkscape:window-y="25"
     inkscape:window-maximized="1"
     inkscape:current-layer="svg2" />
  <g
     id="g2987"
     transform="translate(-14.032714,-14.082066)">
    <path
       style="fill:#ffffff"
       d="M 66.731704,249.09672 85.907482,98.179979 259.06812,82.839357 425.32549,90.509668 436.83095,249.09672 428.39361,417.65518 258.30109,432.22877 88.975606,418.42221 z"
       id="path2991"
       inkscape:connector-curvature="0"
       sodipodi:nodetypes="ccccccccc" />
    <path
       style="fill:#981a1d"
       d="M 231.5,496.86818 C 202.26323,494.06949 176.30332,486.45457 148.03858,472.38612 116.86676,456.87071 91.44766,436.61027 68.513251,409 44.043205,379.54101 24.482135,337.67335 18.054361,301 c -5.362196,-30.59374 -5.362196,-59.40626 0,-90 6.427774,-36.67335 25.988844,-78.54101 50.45889,-108 C 100.9484,63.951984 141.4153,37.391172 191,22.604726 c 24.10296,-7.187641 59.06096,-10.217808 87.5,-7.584518 31.26724,2.895165 56.39555,10.126465 85.46142,24.593667 31.17182,15.515411 56.59092,35.775856 79.52533,63.386125 24.47004,29.45899 44.03111,71.32665 50.45889,108 6.51189,37.15327 4.7948,78.66203 -4.55037,110 -9.796,32.84979 -26.17113,64.23855 -45.90852,88 C 411.0516,448.04802 370.5847,474.60883 321,489.39527 c -24.16743,7.20687 -60.54706,10.24443 -89.5,7.47291 z m 4.5,-103.78485 0,-20.91666 -17.75,-5.91609 -17.75,-5.91609 -0.26791,-22.95482 -0.26791,-22.95483 22.99184,-20.71242 c 12.64552,-11.39183 23.34108,-20.69508 23.76791,-20.67388 0.92448,0.0459 60.11988,87.26905 60.50798,89.1572 0.20543,0.99942 -2.77039,1.42112 -12.73191,1.80426 l -13,0.5 -0.26747,24.75 -0.26747,24.75 73.51747,0 73.51747,0 0,-20.81439 0,-20.81439 -18.45774,-5.84441 c -15.31553,-4.84946 -18.95152,-6.37064 -21.3582,-8.93561 C 386.58881,355.89104 369.39027,333.575 349.96509,308 330.5399,282.425 310.45583,256.03328 305.33382,249.35173 l -9.31275,-12.14826 22.23947,-18.91567 c 12.2317,-10.40362 34.57972,-29.40486 49.66227,-42.22497 15.08254,-12.82011 28.90558,-23.92884 30.71788,-24.68606 C 400.7308,150.50346 405.7872,150 412.46788,150 L 423,150 l 0,-24.5 0,-24.5 -71.5,0 -71.5,0 0,20.75517 0,20.75518 16.25,5.49482 c 8.9375,3.02216 16.23615,5.9388 16.21922,6.48143 -0.0169,0.54263 -25.21693,24.32305 -56,52.84538 L 200.5,259.19077 200.24122,205.40983 c -0.20383,-42.36159 0.008,-53.95063 1,-54.58007 0.69233,-0.43953 8.34628,-0.80603 17.00878,-0.81445 L 234,150 l 0,-24.5 0,-24.5 -71,0 -71,0 4.2e-4,20.75 4.2e-4,20.75 18.03805,6.5 c 14.17797,5.10902 18.14209,6.92799 18.52418,8.5 0.26736,1.1 0.36255,47.9 0.21152,104 L 128.5,363.5 111.75,363.77418 95,364.04836 95,389.02418 95,414 l 70.5,0 70.5,0 0,-20.91667 z"
       id="path2989"
       inkscape:connector-curvature="0" />
  </g>
</svg>
