<?xml version="1.0" encoding="UTF-8" standalone="no"?>
<!-- Created with Inkscape (http://www.inkscape.org/) -->

<svg
   xmlns:dc="http://purl.org/dc/elements/1.1/"
   xmlns:cc="http://creativecommons.org/ns#"
   xmlns:rdf="http://www.w3.org/1999/02/22-rdf-syntax-ns#"
   xmlns:svg="http://www.w3.org/2000/svg"
   xmlns="http://www.w3.org/2000/svg"
   xmlns:sodipodi="http://sodipodi.sourceforge.net/DTD/sodipodi-0.dtd"
   xmlns:inkscape="http://www.inkscape.org/namespaces/inkscape"
   id="svg2"
   version="1.1"
   inkscape:version="0.48.4 r9939"
   width="961.57227"
   height="676.68671"
   sodipodi:docname="YouTube-icon-big.png">
  <metadata
     id="metadata8">
    <rdf:RDF>
      <cc:Work
         rdf:about="">
        <dc:format>image/svg+xml</dc:format>
        <dc:type
           rdf:resource="http://purl.org/dc/dcmitype/StillImage" />
        <dc:title></dc:title>
      </cc:Work>
    </rdf:RDF>
  </metadata>
  <defs
     id="defs6" />
  <sodipodi:namedview
     pagecolor="#ffffff"
     bordercolor="#666666"
     borderopacity="1"
     objecttolerance="10"
     gridtolerance="10"
     guidetolerance="10"
     inkscape:pageopacity="0"
     inkscape:pageshadow="2"
     inkscape:window-width="1600"
     inkscape:window-height="851"
     id="namedview4"
     showgrid="false"
     fit-margin-top="0"
     fit-margin-left="0"
     fit-margin-right="0"
     fit-margin-bottom="0"
     inkscape:zoom="0.69411765"
     inkscape:cx="463.6142"
     inkscape:cy="340.04091"
     inkscape:window-x="0"
     inkscape:window-y="25"
     inkscape:window-maximized="1"
     inkscape:current-layer="svg2" />
  <g
     id="g3766"
     transform="translate(-279.14852,74.442433)">
    <path
       style="fill:#ffffff;fill-opacity:1"
       d="M 401.94916,262.20339 443.72882,93.644067 762.93221,-18.728814 1051.8814,27.372877 1085.017,269.40678 1080.6949,442.28814 747.08475,473.98305 479.74577,440.84746 z"
       id="path2991"
       inkscape:connector-curvature="0"
       sodipodi:nodetypes="ccccccccc" />
    <path
       sodipodi:nodetypes="cccc"
       inkscape:connector-curvature="0"
       id="path3761"
       d="M 1038.7288,267.9661 620.83246,92.830433 1093.5742,414.2882 z"
       inkscape:transform-center-y="-13.279625"
       inkscape:transform-center-x="12.295624"
       style="fill:#e6e6e6;fill-opacity:1;stroke:none" />
    <path
       style="fill:#d12121"
       d="m 728.05085,602.01476 c -276.29402,-4.36726 -331.86178,-8.37919 -368.5,-26.60528 -16.60831,-8.26199 -33.84608,-22.82385 -42.33774,-35.76541 -9.28754,-14.15453 -16.94939,-33.16408 -23.17551,-57.5 -5.69289,-22.2517 -8.41119,-44.54546 -12.61986,-103.5 -2.137,-29.93496 -3.08178,-162.12455 -1.42584,-199.5 1.91341,-43.18679 6.41104,-96.536923 9.65282,-114.500003 7.76148,-43.007269 22.81718,-76.46043 42.46907,-94.364584 21.90726,-19.958944 46.37047,-30.422382 79.59906,-34.046224 34.41819,-3.753578 120.15661,-7.494146 219.838,-9.591022 160.51172,-3.376488 402.57805,1.492385 476.83805,9.591022 33.2285,3.623842 57.6918,14.08728 79.599,34.046224 19.6486,17.901093 34.5057,50.890772 42.4977,94.364584 1.9168,10.42664 5.8361,50.758453 8.2601,85.000003 2.6249,37.08031 2.6363,191.42805 0.017,228 -4.1926,58.53555 -6.8741,81.14583 -12.1767,102.67317 -8.4062,34.12815 -19.4904,57.2097 -35.0202,72.92579 -22.7692,23.0425 -49.2315,34.50302 -88.5147,38.33474 -59.4646,5.80024 -280.01008,11.93845 -375.00005,10.43699 z m 44.71447,-271.75805 c 132.95478,-68.91513 144.78553,-75.17373 144.78553,-76.59317 0,-1.01266 -250.57462,-132.57866 -254.75,-133.75831 -1.6604,-0.46911 -1.75,6.34659 -1.75,133.12221 0,116.6631 0.18582,133.61663 1.46447,133.61663 0.80547,0 50.41797,-25.37431 110.25,-56.38736 z"
       id="path2989"
       inkscape:connector-curvature="0" />
  </g>
</svg>
